<svg xmlns="http://www.w3.org/2000/svg" xmlns:xlink="http://www.w3.org/1999/xlink"><defs><symbol viewBox="0 0 24 24" id="icon_add"><g fill="none" fill-rule="evenodd"><path d="M12.4583333 7.875L12.4583333 17.0416667M17.0416667 12.4583333L7.875 12.4583333" /><circle cx="12.458" cy="12.458" r="10.083" /></g></symbol><symbol viewBox="0 0 24 24" id="icon_arrow"><path d="M7.875 3.29166667L17.0416667 12.4583333 7.875 21.625" fill="none" fill-rule="evenodd" /></symbol><symbol viewBox="0 0 24 24" id="icon_arrow_back"><g fill="none" fill-rule="evenodd"><path d="M21.625 12.4583333L3.29166667 12.4583333M9.70833333 18.875L3.29166667 12.4583333 9.70833333 6.04166667" /></g></symbol><symbol viewBox="0 0 24 24" id="icon_badge"><g fill="none" fill-rule="evenodd"><path d="M6.95833333,19.7916667 L9.06666667,20.8 C10.075,21.35 11.2666667,21.625 12.4583333,21.625 L18.875,21.625 C19.8833333,21.625 20.7083333,20.8 20.7083333,19.7916667 L21.625,12.4583333 C21.625,11.45 20.8,10.625 19.7916667,10.625 L15.2083333,10.625 L15.2083333,7.875 C15.2083333,6.31666667 14.2916667,4.20833333 12.9166667,3.38333333 C12.275,3.10833333 11.5416667,3.475 11.5416667,4.20833333 L11.5416667,7.875 L6.95833333,13.375" /><path d="M3.292 11.542H6.959V21.625H3.292z" /></g></symbol><symbol viewBox="0 0 24 24" id="icon_basket"><g fill="none" fill-rule="evenodd"><circle cx="7.875" cy="20.708" r="1.833" /><circle cx="18.875" cy="20.708" r="1.833" /><path d="M5.73641667 6.95833333L21.625 6.95833333 19.7916667 16.125 6.95833333 16.125 5.125 2.375 2.375 2.375" /></g></symbol><symbol viewBox="0 0 24 24" id="icon_basket_add"><g fill="none" fill-rule="evenodd"><path d="M13.375 4.20833333L13.375 10.625M15.2083333 10.625L13.375 12.4583333 11.5416667 10.625z" /><circle cx="7.875" cy="20.708" r="1.833" /><circle cx="18.875" cy="20.708" r="1.833" /><path d="M17.0416667 6.95833333L21.625 6.95833333 19.7916667 16.125 6.95833333 16.125 5.125 2.375 2.375 2.375M9.70833333 6.95833333L5.73641667 6.95833333" /></g></symbol><symbol viewBox="0 0 24 24" id="icon_brochure"><g fill="none" fill-rule="evenodd"><path d="M3.292 2.375H21.625V22.542H3.292zM15.2083333 6.95833333L17.0416667 6.95833333M15.2083333 10.625L17.0416667 10.625M7.875 14.2916667L17.0416667 14.2916667M7.875 17.9583333L17.0416667 17.9583333" /><path d="M7.875 6.958H11.542V10.625H7.875z" /></g></symbol><symbol viewBox="0 0 24 24" id="icon_calendar"><g fill="none" fill-rule="evenodd"><path d="M22.5416667 9.70833333L22.5416667 22.5416667 2.375 22.5416667 2.375 9.70833333M2.375 4.208H22.542V9.708H2.375zM12.4583333 2.375L12.4583333 6.04166667M6.95833333 2.375L6.95833333 6.04166667M17.9583333 2.375L17.9583333 6.04166667" /><path d="M6.042 13.375H7.875V14.375H6.042zM11.542 13.375H13.375V14.375H11.542zM6.042 17.958H7.875V18.958H6.042zM11.542 17.958H13.375V18.958H11.542zM17.042 13.375H18.875V14.375H17.042z" /></g></symbol><symbol viewBox="0 0 24 24" id="icon_categories"><g fill="none" fill-rule="evenodd"><path d="M2.375 2.375H10.625V10.625H2.375zM14.292 2.375H22.542V10.625H14.292zM2.375 14.292H10.625V22.542H2.375zM14.292 14.292H22.542V22.542H14.292z" /></g></symbol><symbol viewBox="0 0 24 24" id="icon_circle"><circle cx="12" cy="12" r="2.75" fill="none" fill-rule="evenodd" /></symbol><symbol viewBox="0 0 24 24" id="icon_clock"><g fill="none" fill-rule="evenodd"><circle cx="12.458" cy="12.458" r="10.083" /><path d="M12.4583333 6.95833333L12.4583333 12.4583333 17.9583333 12.4583333" /></g></symbol><symbol viewBox="0 0 24 24" id="icon_close"><g fill="none" fill-rule="evenodd"><path d="M18.875 6.04166667L6.04166667 18.875M18.875 18.875L6.04166667 6.04166667" /></g></symbol><symbol viewBox="0 0 24 24" id="icon_comment"><g fill="none" fill-rule="evenodd"><path d="M20.1583333 16.8583333C21.625 15.3916667 22.5416667 13.5583333 22.5416667 11.5416667 22.5416667 6.95833333 18.05 3.29166667 12.4583333 3.29166667 6.86666667 3.29166667 2.375 6.95833333 2.375 11.5416667 2.375 16.125 6.86666667 19.7916667 12.4583333 19.7916667 13.4666667 19.7916667 14.3833333 19.7 15.3 19.425L20.7083333 21.625 20.1583333 16.8583333zM8.79166667 9.70833333L16.125 9.70833333M8.79166667 13.375L13.375 13.375" /></g></symbol><symbol viewBox="0 0 24 24" id="icon_company"><g fill="none" fill-rule="evenodd"><path d="M8.79166667 6.04166667L8.79166667 3.29166667 16.125 3.29166667 16.125 6.04166667M22.5416667 16.125L22.5416667 21.625 2.375 21.625 2.375 16.125M16.125 16.125L8.79166667 16.125M5.125 16.125L2.375 16.125 2.375 6.04166667 22.5416667 6.04166667 22.5416667 16.125 19.7916667 16.125M6.95833333 6.04166667L6.95833333 14.2916667M17.9583333 6.04166667L17.9583333 14.2916667M17.9583333 17.9583333L17.9583333 21.625M6.95833333 17.9583333L6.95833333 21.625" /><path d="M5.125 14.292H8.792V17.959H5.125zM16.125 14.292H19.792V17.959H16.125z" /></g></symbol><symbol viewBox="0 0 24 24" id="icon_compare"><g fill="none" fill-rule="evenodd"><path d="M2.375 9.70833333L20.7083333 9.70833333 14.2916667 3.29166667M22.5416667 15.2083333L4.20833333 15.2083333 10.625 21.625" /></g></symbol><symbol viewBox="0 0 24 24" id="icon_delete"><g fill="none" fill-rule="evenodd"><path d="M19.7916667 6.04166667L19.7916667 22.5416667 5.125 22.5416667 5.125 6.04166667M2.375 6.04166667L22.5416667 6.04166667M12.4583333 11.5416667L12.4583333 17.0416667M8.79166667 11.5416667L8.79166667 17.0416667M16.125 11.5416667L16.125 17.0416667M8.79166667 6.04166667L8.79166667 2.375 16.125 2.375 16.125 6.04166667" /></g></symbol><symbol viewBox="0 0 24 24" id="icon_delivery"><g fill="none" fill-rule="evenodd"><path d="M18.4166667 16.5833333L22.0833333 16.5833333 22.0833333 11.0833333 19.3333333 10.1666667 17.5 4.66666667 9.25 4.66666667 9.25 16.5833333 12.9166667 16.5833333" /><path d="M12.9166667 16.5833333C12.9166667 15.0644167 14.14775 13.8333333 15.6666667 13.8333333 17.1855833 13.8333333 18.4166667 15.0644167 18.4166667 16.5833333 18.4166667 18.10225 17.1855833 19.3333333 15.6666667 19.3333333 14.14775 19.3333333 12.9166667 18.10225 12.9166667 16.5833333zM12.9166667 7.41666667L12.9166667 10.1666667 15.6666667 10.1666667M6.5 4.66666667L1.91666667 4.66666667M6.5 8.33333333L3.75 8.33333333M6.5 12L5.58333333 12" /></g></symbol><symbol viewBox="0 0 24 24" id="icon_desktop"><g fill="none" fill-rule="evenodd"><path d="M21 19L3 19C1.895 19 1 18.105 1 17L1 3C1 1.895 1.895 1 3 1L21 1C22.105 1 23 1.895 23 3L23 17C23 18.105 22.105 19 21 19L21 19zM1 15L23 15M15 19L15 23M9 23L9 19M6 23L18 23M11 4L13 4" /></g></symbol><symbol viewBox="0 0 24 24" id="icon_download"><g fill="none" fill-rule="evenodd"><path d="M12.4583333 2.375L12.4583333 17.0416667M17.9583333 11.5416667L12.4583333 17.0416667 6.95833333 11.5416667M21.625 21.625L3.29166667 21.625" /></g></symbol><symbol viewBox="0 0 24 24" id="icon_dragdrop"><g fill="none" fill-rule="evenodd"><path d="M12 1.52380952L12 8.85714286M12 22.4761904L12 15.1428571M15.1428571 4.66666667L12 1.52380952 8.85714286 4.66666667M8.85714286 19.3333333L12 22.4761905 15.1428571 19.3333333" /><path d="M4.73214286,7.875 L4.73214286,15.2083333" transform="rotate(-90 5.19 11.542)" /><path d="M18.3511905,15.2083333 L18.3511905,7.875" transform="rotate(-90 18.81 11.542)" /><path transform="rotate(-90 3.095 12)" d="M6.23809524 13.5714286L3.09523809 10.4285714 -0.0476190487 13.5714286" /><path transform="rotate(-90 20.905 12)" d="M17.7619047 10.4285714L20.9047619 13.5714286 24.047619 10.4285714" /></g></symbol><symbol viewBox="0 0 24 24" id="icon_edit"><g fill="none" fill-rule="evenodd"><path d="M19.3333333 8.85714286L15.1428571 4.66666667M6.76190476 21.4285714L1.52380952 22.4761905 2.57142857 17.2380952 18.2857143 1.52380952 22.4761905 5.71428571 22.2452037 5.94527246 21.2296882 6.96078796 17.611754 10.5787222 14.8984828 13.2919934 13.7397102 14.450766 11.9737613 16.2167149 10.2638026 17.9266736 7.34461857 20.8458576 6.98980854 21.2006677" /></g></symbol><symbol viewBox="0 0 24 24" id="icon_email"><g fill="none" fill-rule="evenodd"><path d="M18.875 7.875L12.4583333 14.2916667 6.04166667 7.875" /><path d="M2.375 4.208H22.542V20.708H2.375zM7.875 15.2083333L6.04166667 17.0416667M17.0416667 15.2083333L18.875 17.0416667" /></g></symbol><symbol viewBox="0 0 24 24" id="icon_error"><g fill="none" fill-rule="evenodd"><circle cx="12.458" cy="12.458" r="10.083" /><path d="M12.4583333 7.875L12.4583333 13.375M12.4583333 16.125L12.4583333 17.0416667" /></g></symbol><symbol viewBox="0 0 24 24" id="icon_exit"><g fill="none" fill-rule="evenodd"><path d="M8.88333333 16.125C10.1666667 18.325 12.55 19.7916667 15.2083333 19.7916667 19.2416667 19.7916667 22.5416667 16.4916667 22.5416667 12.4583333 22.5416667 8.425 19.2416667 5.125 15.2083333 5.125 12.4583333 5.125 10.1666667 6.59166667 8.88333333 8.79166667M16.125 12.4583333L3.29166667 12.4583333M6.04166667 15.2083333L3.29166667 12.4583333 6.04166667 9.70833333" /></g></symbol><symbol viewBox="0 0 24 24" id="icon_eye"><g fill="none" fill-rule="evenodd"><path d="M2,12 C2,12 6,5 12,5 C18,5 22,12 22,12 C22,12 18,19 12,19 C6,19 2,12 2,12 L2,12 Z" /><path d="M12,9 C13.657,9 15,10.343 15,12 C15,13.657 13.657,15 12,15 C10.343,15 9,13.657 9,12 C9,10.343 10.343,9 12,9 L12,9 Z" /></g></symbol><symbol viewBox="0 0 24 24" id="icon_facebook"><path d="M16.8166667,6.16666667 L15.075,6.16666667 C13.65,6.16666667 13.3333333,6.8 13.3333333,7.75 L13.3333333,9.96666667 L16.6583333,9.96666667 L16.1833333,13.2916667 L13.3333333,13.2916667 L13.3333333,22 L9.85,22 L9.85,13.2916667 L7,13.2916667 L7,9.96666667 L9.85,9.96666667 L9.85,7.43333333 C9.85,4.58333333 11.5916667,3 14.2833333,3 C15.55,3 16.6583333,3.15833333 16.8166667,3.15833333 L16.8166667,6.16666667 Z" fill="none" fill-rule="evenodd" /></symbol><symbol viewBox="0 0 24 24" id="icon_filters"><g fill="none" fill-rule="evenodd"><path d="M5.125 10.625L5.125 2.375M5.125 22.5416667L5.125 19.7916667M12.4583333 3.29166667L12.4583333 2.375M12.4583333 22.5416667L12.4583333 12.4583333M19.7916667 10.625L19.7916667 2.375M19.7916667 22.5416667L19.7916667 19.7916667" /><circle cx="5.125" cy="17.042" r="2.75" /><circle cx="12.458" cy="9.708" r="2.75" /><circle cx="19.792" cy="17.042" r="2.75" /></g></symbol><symbol viewBox="0 0 24 24" id="icon_gift"><g fill="none" fill-rule="evenodd"><path d="M20.7083333 9.70833333L20.7083333 22.5416667 4.20833333 22.5416667 4.20833333 9.70833333" /><path d="M2.375 6.042H22.542V9.709H2.375zM6.95833333 4.20833333C6.95833333 3.19541667 7.77875 2.375 8.79166667 2.375 11.5031667 2.375 12.4583333 6.04166667 12.4583333 6.04166667 12.4583333 6.04166667 9.80458333 6.04166667 8.79166667 6.04166667 7.77875 6.04166667 6.95833333 5.22125 6.95833333 4.20833333zM17.9583333 4.20833333C17.9583333 3.19541667 17.1379167 2.375 16.125 2.375 13.4135 2.375 12.4583333 6.04166667 12.4583333 6.04166667 12.4583333 6.04166667 15.1120833 6.04166667 16.125 6.04166667 17.1379167 6.04166667 17.9583333 5.22125 17.9583333 4.20833333z" /><path d="M14.2916667 6.04166667L14.2916667 22.5416667 10.625 22.5416667 10.625 6.04166667" /></g></symbol><symbol viewBox="0 0 24 24" id="icon_gobottom"><g fill="none" fill-rule="evenodd"><path d="M12.4583333 2.375L12.4583333 17.0416667M17.9583333 11.5416667L12.4583333 17.0416667 6.95833333 11.5416667M21.625 21.625L3.29166667 21.625" /></g></symbol><symbol viewBox="0 0 24 24" id="icon_google"><g fill="none" fill-rule="evenodd"><path d="M23 11L21 11 21 9 19 9 19 11 17 11 17 13 19 13 19 15 21 15 21 13 23 13zM9.10626841 10.8705882L9.10626841 13.6941177 12.9792633 13.6941177C12.7991241 14.9176471 11.6282186 17.082353 8.65592016 17.082353 6.04390035 17.082353 3.88222877 14.8235294 3.88222877 12 3.88222877 9.17647059 6.04390035 6.91764706 8.65592016 6.91764706 10.1871042 6.91764706 11.1778703 7.57647059 11.7182882 8.14117647L13.7898901 6.07058824C12.4388454 4.75294118 10.7275221 4 8.65592016 4 4.42264667 4 1 7.57647059 1 12 1 16.4235294 4.42264667 20 8.65592016 20 13.8799598 20 16.6721189 15.4823529 15.8614921 10.8705882L9.10626841 10.8705882z" /></g></symbol><symbol viewBox="0 0 24 24" id="icon_gotop"><g fill="none" fill-rule="evenodd"><path d="M12.4583333 22.5416667L12.4583333 7.875M6.95833333 13.375L12.4583333 7.875 17.9583333 13.375M3.29166667 3.29166667L21.625 3.29166667" /></g></symbol><symbol viewBox="0 0 24 24" id="icon_heart_add"><g fill="none" fill-rule="evenodd"><path d="M21.35,11.725 C22.0833333,10.4416667 22.5416667,9.06666667 22.5416667,7.875 C22.5416667,4.85 20.0666667,2.375 17.0416667,2.375 C15.1166667,2.375 13.4666667,3.38333333 12.4583333,4.85 C11.45,3.38333333 9.8,2.375 7.875,2.375 C4.85,2.375 2.375,4.85 2.375,7.875 C2.375,13.375 12.4583333,21.625 12.4583333,21.625 C12.4583333,21.625 13.1916667,20.9833333 14.2916667,19.975" /><circle cx="17.042" cy="15.208" r="5.5" /><path d="M17.0416667 13.375L17.0416667 17.0416667M15.2083333 15.2083333L18.875 15.2083333" /></g></symbol><symbol viewBox="0 0 24 24" id="icon_heart_remove"><g fill="none" fill-rule="evenodd"><path d="M21.35,11.725 C22.0833333,10.4416667 22.5416667,9.06666667 22.5416667,7.875 C22.5416667,4.85 20.0666667,2.375 17.0416667,2.375 C15.1166667,2.375 13.4666667,3.38333333 12.4583333,4.85 C11.45,3.38333333 9.8,2.375 7.875,2.375 C4.85,2.375 2.375,4.85 2.375,7.875 C2.375,13.375 12.4583333,21.625 12.4583333,21.625 C12.4583333,21.625 13.1916667,20.9833333 14.2916667,19.975" /><circle cx="17.042" cy="15.208" r="5.5" /><path d="M15.2083333,15.2083333 L18.875,15.2083333" /></g></symbol><symbol viewBox="0 0 24 24" id="icon_history"><g fill="none" fill-rule="evenodd"><path d="M21.1448408,12.2400794 C21.1448408,17.4017857 16.9216265,21.625 11.7599201,21.625 C6.59821383,21.625 2.37499954,17.4017857 2.37499954,12.2400794 C2.37499954,7.07837301 6.59821383,2.85515873 11.7599201,2.85515873 C15.4200392,2.85515873 18.6109123,4.91984127 20.1124995,8.01686507" transform="matrix(-1 0 0 1 23.52 0)" /><path transform="matrix(-1 0 0 1 11.507 0)" d="M8.94444402 2.57361111L8.19365038 8.11071429 2.56269795 7.35992064" /><path transform="matrix(-1 0 0 1 28.212 0)" d="M16.4523805 7.54761904L16.4523805 12.2400794 11.7599202 12.2400794" /></g></symbol><symbol viewBox="0 0 24 24" id="icon_home"><g fill="none" fill-rule="evenodd"><path d="M9.70833333 21.68L9.70833333 12.88 15.2083333 12.88 15.2083333 21.68M5.125 21.68L5.125 8.959996M19.7916667 8.959996L19.7916667 21.68M2.375 11.12L12.4583333 3.2 22.5416667 11.12M2.375 21.68L22.5416667 21.68" /></g></symbol><symbol viewBox="0 0 24 24" id="icon_image"><g fill="none" fill-rule="evenodd"><path d="M2.375 17.0416667L6.95833333 13.375 11.5416667 17.0416667 17.0416667 10.625 22.5416667 15.2083333" /><path d="M2.375 3.292H22.542V21.625H2.375z" /><circle cx="10.625" cy="8.792" r="1.833" /></g></symbol><symbol viewBox="0 0 24 24" id="icon_info"><g fill="none" fill-rule="evenodd"><circle cx="12.458" cy="12.458" r="10.083" /><path d="M10.625 11.5416667L12.4583333 11.5416667 12.4583333 17.0416667M10.625 17.0416667L14.2916667 17.0416667M12.4583333 7.875L12.4583333 8.79166667" /></g></symbol><symbol viewBox="0 0 24 24" id="icon_instagram"><g fill="none" fill-rule="evenodd"><path d="M16.125,1 L7.875,1 C4.078625,1 1,4.078625 1,7.875 L1,16.125 C1,19.921375 4.078625,23 7.875,23 L16.125,23 C19.921375,23 23,19.921375 23,16.125 L23,7.875 C23,4.078625 19.921375,1 16.125,1 Z" /><path d="M12,7 C9.23875,7 7,9.23875 7,12 C7,14.76125 9.23875,17 12,17 C14.76125,17 17,14.76125 17,12 C17,9.23875 14.76125,7 12,7 Z" /><circle cx="18" cy="6" r="1" /></g></symbol><symbol viewBox="0 0 24 24" id="icon_linkedin"><path d="M5.42629008,21.8064164 L2.12348731,21.8064164 L2.12348731,7.54755122 L5.42629008,7.54755122 L5.42629008,21.8064164 Z M22.9993942,21.8837049 L19.7738041,21.8837049 L19.7738041,13.8964501 C19.7738041,11.5748811 18.5047741,10.0752354 16.5417008,10.0752354 C14.983852,10.0752354 13.7170184,11.1609467 13.3172467,12.1797455 C13.1850498,12.5099159 13.1235902,12.9478206 13.1235902,13.5559417 L13.1235902,21.8837049 L9.82078734,21.8837049 L9.82135536,11.0532503 C9.82298368,9.76517278 9.824612,8.6250831 9.79469634,7.61336567 L12.7401395,7.55679099 L12.9093334,9.31102273 C12.9365226,9.59007149 13.1709629,9.80273777 13.4511098,9.80273777 L13.5435454,9.80273777 C13.7312189,9.80273777 13.9052978,9.7064775 14.0048525,9.5470914 C14.3257832,9.03417031 15.5773561,7.36101381 18.2116763,7.36101381 C21.2550459,7.36101381 23,9.5400101 23,13.3394886 L23,21.8837427 L22.9993942,21.8837427 L22.9993942,21.8837049 Z M3.89835707,4.75766952 C2.78053372,4.75766952 2,4.01572322 2,2.95341425 C2,1.87315588 2.78761502,1.14753065 3.95928657,1.14753065 C5.1053594,1.14753065 5.86305877,1.86118961 5.88865748,2.95341425 C5.88865748,4.03261231 5.08850818,4.75766952 3.89835707,4.75766952 Z" fill="none" fill-rule="evenodd" /></symbol><symbol viewBox="0 0 24 24" id="icon_location"><g fill="none" fill-rule="evenodd"><path d="M10.5333333 17.0416667L6.04166667 17.0416667 3.29166667 22.5416667 21.625 22.5416667 18.875 17.0416667 14.3833333 17.0416667" /><path d="M18.875,8.79166667 C18.875,12.7333333 12.4583333,19.2416667 12.4583333,19.2416667 C12.4583333,19.2416667 6.04166667,12.7333333 6.04166667,8.79166667 C6.04166667,4.75833333 9.34166667,2.375 12.4583333,2.375 C15.575,2.375 18.875,4.75833333 18.875,8.79166667 Z" /><circle cx="12.458" cy="8.792" r="1.833" /></g></symbol><symbol viewBox="0 0 24 24" id="icon_menu"><g fill="none" fill-rule="evenodd"><path d="M2.375 12.4583333L22.5416667 12.4583333M2.375 6.04166667L22.5416667 6.04166667M2.375 18.875L22.5416667 18.875" /></g></symbol><symbol viewBox="0 0 24 24" id="icon_mobile"><g fill="none" fill-rule="evenodd"><path d="M7.76923077,22 C7.21673077,22 7,22 7,21.1363636 L7,3.86363636 C7,3 7.21673077,3 7.76923077,3 L16.2307692,3 C16.7832692,3 17,3 17,3.86363636 L17,21.1363636 C17,22 16.7832692,22 16.2307692,22 L7.76923077,22 Z" /><path d="M11 19C11 18.448 11.448 18 12 18 12.552 18 13 18.448 13 19 13 19.552 12.552 20 12 20 11.448 20 11 19.552 11 19L11 19zM7.5 16.5L16.5 16.5" /></g></symbol><symbol viewBox="0 0 24 24" id="icon_money"><g fill="none" fill-rule="evenodd"><circle cx="12.458" cy="12.458" r="10.083" /><path d="M9.70833333 14.75C9.70833333 16.0333333 10.7166667 17.0416667 12 17.0416667L12.9166667 17.0416667C14.2 17.0416667 15.2083333 16.0333333 15.2083333 14.75 15.2083333 11.5416667 9.70833333 13.375 9.70833333 10.1666667 9.70833333 8.88333333 10.7166667 7.875 12 7.875L12.9166667 7.875C14.2 7.875 15.2083333 8.88333333 15.2083333 10.1666667M12.4583333 6.95833333L12.4583333 17.9583333" /></g></symbol><symbol viewBox="0 0 24 24" id="icon_more"><g fill="none" fill-rule="evenodd"><circle cx="12" cy="12.1" r="1.913" /><circle cx="3.391" cy="12.1" r="1.913" /><circle cx="20.609" cy="12.1" r="1.913" /></g></symbol><symbol viewBox="0 0 24 24" id="icon_phone"><path d="M17.0416667,15.2083333 L14.2916667,17.9583333 L6.95833333,10.625 L9.70833333,7.875 L5.125,3.29166667 L2.375,6.04166667 C2.375,15.15425 9.76241667,22.5416667 18.875,22.5416667 L21.625,19.7916667 L17.0416667,15.2083333 Z" fill="none" fill-rule="evenodd" /></symbol><symbol viewBox="0 0 24 24" id="icon_print"><g fill="none" fill-rule="evenodd"><path d="M6.04166667 6.95833333L6.04166667 2.375 18.875 2.375 18.875 6.95833333M6.04166667 17.9583333L2.375 17.9583333 2.375 6.95833333 22.5416667 6.95833333 22.5416667 17.9583333 18.875 17.9583333" /><path d="M6.042 12.458H18.875V22.541H6.042z" /></g></symbol><symbol viewBox="0 0 24 24" id="icon_rate"><path d="M12 3.75L12.1107773 3.98632491 14.5210289 9.12819513 14.6329787 9.36702127 15.0718085 9.36702127 19.4601064 9.36702127 20.25 9.36702127 20.0578965 9.56729946 16.3166317 13.4677668 16.125 13.6675532 16.1892445 13.92115 17.7280551 19.9954024 17.7925532 20.25 17.5620599 20.1172918 12.2395569 17.0528203 12 16.9148936 11.7980508 17.0311674 6.43107107 20.1212466 6.20744681 20.25 6.26502468 20.0227189 7.80692377 13.9362752 7.875 13.6675532 7.67901472 13.4632282 3.94889477 9.57437965 3.75 9.36702127 4.53989362 9.36702127 8.92819149 9.36702127 9.36702127 9.36702127 9.47723076 9.13190771 11.8663793 4.03505759z" fill="none" fill-rule="evenodd" /></symbol><symbol viewBox="0 0 24 24" id="icon_rows"><g fill="none" fill-rule="evenodd"><path d="M2.375 10.625H22.542V14.292H2.375zM2.375 3.292H22.542V6.959H2.375zM2.375 17.958H22.542V21.625H2.375z" /></g></symbol><symbol viewBox="0 0 24 24" id="icon_search"><g fill="none" fill-rule="evenodd"><path d="M21.625,21.625 L16.4916667,16.4916667" /><circle cx="10.625" cy="10.625" r="8.25" /></g></symbol><symbol viewBox="0 0 24 24" id="icon_secure"><g fill="none" fill-rule="evenodd"><path d="M12.4583333,2.375 C9.89166667,2.375 7.875,4.39166667 7.875,6.95833333 L7.875,9.70833333 L17.0416667,9.70833333 L17.0416667,6.95833333 C17.0416667,4.39166667 15.025,2.375 12.4583333,2.375 Z" /><path d="M5.125 9.708H19.792V22.541H5.125z" /><circle cx="12.458" cy="15.208" r="1.833" /><path d="M12.4583333,17.0416667 L12.4583333,18.875" /></g></symbol><symbol viewBox="0 0 24 24" id="icon_share"><g fill="none" fill-rule="evenodd"><path d="M8.425 11.0833333L16.4916667 6.5M8.425 13.8333333L16.4916667 18.4166667" /><circle cx="6.042" cy="12.458" r="2.75" /><circle cx="18.875" cy="5.125" r="2.75" /><circle cx="18.875" cy="19.792" r="2.75" /></g></symbol><symbol viewBox="0 0 24 24" id="icon_store"><g fill="none" fill-rule="evenodd"><path d="M5.125 12.4583333L5.125 22.5416667 10.625 22.5416667 10.625 17.9583333 14.2916667 17.9583333 14.2916667 22.5416667 19.7916667 22.5416667 19.7916667 12.4583333M21.625 9.70833333C21.625 11.5416667 20.6166667 12.4583333 19.3333333 12.4583333 18.05 12.4583333 17.0416667 11.45 17.0416667 10.1666667 17.0416667 11.45 16.0333333 12.4583333 14.75 12.4583333 13.4666667 12.4583333 12.4583333 11.45 12.4583333 10.1666667 12.4583333 11.45 11.45 12.4583333 10.1666667 12.4583333 8.88333333 12.4583333 7.875 11.45 7.875 10.1666667 7.875 11.45 6.86666667 12.4583333 5.58333333 12.4583333 4.3 12.4583333 3.29166667 11.5416667 3.29166667 9.70833333L6.95833333 2.375 17.9583333 2.375 21.625 9.70833333z" /></g></symbol><symbol viewBox="0 0 24 24" id="icon_success"><g fill="none" fill-rule="evenodd"><path d="M6.95833333 12.4583333L10.625 16.125 17.9583333 8.79166667" /><circle cx="12.458" cy="12.458" r="10.083" /></g></symbol><symbol viewBox="0 0 24 24" id="icon_sync"><g fill="none" fill-rule="evenodd"><path d="M3.29166667 12.4583333C3.29166667 7.41666667 7.41666667 3.29166667 12.4583333 3.29166667 16.0333333 3.29166667 19.15 5.30833333 20.6166667 8.33333333M21.625 12.4583333C21.625 17.5 17.5 21.625 12.4583333 21.625 8.88333333 21.625 5.76666667 19.6083333 4.3 16.5833333" /><path d="M21.4416667 3.01666667L20.7083333 8.425 15.2083333 7.69166667M3.475 21.9L4.20833333 16.4916667 9.70833333 17.225" /></g></symbol><symbol viewBox="0 0 24 24" id="icon_tablet"><g fill="none" fill-rule="evenodd"><path d="M18.4,23 L5.6,23 C4.716,23 4,22.105 4,21 L4,3 C4,1.895 4.716,1 5.6,1 L18.4,1 C19.284,1 20,1.895 20,3 L20,21 C20,22.105 19.284,23 18.4,23 L18.4,23 Z" /><path d="M11 20C11 19.448 11.448 19 12 19 12.552 19 13 19.448 13 20 13 20.552 12.552 21 12 21 11.448 21 11 20.552 11 20L11 20zM4.5 17.5L19.5 17.5" /></g></symbol><symbol viewBox="0 0 24 24" id="icon_tick"><path d="M6.95833333 12.4583333L10.625 16.125 17.9583333 8.79166667" fill="none" fill-rule="evenodd" /></symbol><symbol viewBox="0 0 24 24" id="icon_top"><g fill="none" fill-rule="evenodd"><path d="M12.4583333 21.625L12.4583333 3.29166667M6.04166667 9.70833333L12.4583333 3.29166667 18.875 9.70833333" /></g></symbol><symbol viewBox="0 0 24 24" id="icon_twitter"><path d="M19.7563001,6.47458476 C20.5545533,5.99563287 21.1931558,5.19737972 21.512457,4.31930126 C20.7142039,4.79825315 19.9159507,5.11755441 19.0378723,5.27720504 C18.3194445,4.47895189 17.2817153,4 16.164161,4 C14.0088775,4 12.2527205,5.75615693 12.2527205,7.91144043 C12.2527205,8.2307417 12.2527205,8.55004295 12.3325459,8.7895189 C8.97988259,8.62986827 6.10617125,7.03336197 4.19036369,4.63860252 C3.79123711,5.27720504 3.63158648,5.91580756 3.63158648,6.63423539 C3.63158648,7.99126575 4.35001432,9.18864548 5.38774342,9.90707334 C4.74914089,9.90707334 4.11053837,9.74742268 3.63158648,9.42812142 C3.63158648,9.42812142 3.63158648,9.42812142 3.63158648,9.50794673 C3.63158648,11.4237543 4.98861684,13.0202606 6.74477377,13.3395619 C6.42547251,13.4193871 6.10617125,13.4992125 5.70704467,13.4992125 C5.46756873,13.4992125 5.22809278,13.4992125 4.98861684,13.4193871 C5.46756873,15.0158935 6.9044244,16.1334479 8.66058133,16.1334479 C7.30355098,17.171177 5.62721936,17.8097795 3.79123711,17.8097795 C3.47193586,17.8097795 3.15263459,17.8097795 2.83333333,17.7299541 C4.58949026,18.8475086 6.66494845,19.4861111 8.82023196,19.4861111 C16.0843356,19.4861111 19.9957761,13.4992125 19.9957761,8.31056701 L19.9957761,7.83161512 C20.7940292,7.27283792 21.4326318,6.55441008 21.9914089,5.83598225 C21.2729811,6.1552835 20.5545533,6.39475945 19.7563001,6.47458476 Z" fill="none" fill-rule="evenodd" /></symbol><symbol viewBox="0 0 24 24" id="icon_unavailable"><g fill="none" fill-rule="evenodd"><path d="M19.6083333,5.30833333 L5.30833333,19.6083333" /><circle cx="12.458" cy="12.458" r="10.083" /></g></symbol><symbol viewBox="0 0 24 24" id="icon_user"><g fill="none" fill-rule="evenodd"><path d="M15.1166667 15.4833333L13.375 18.875 11.5416667 18.875 9.8 15.4833333M9.70833333 22.5416667L11.5416667 18.875M13.375 18.875L15.2083333 22.5416667" /><path d="M9.43333333 15.2083333L8.79166667 15.2083333C5.21666667 15.2083333 2.375 18.05 2.375 21.625L2.375 22.5416667 22.5416667 22.5416667 22.5416667 21.625C22.5416667 18.05 19.7 15.2083333 16.125 15.2083333L15.4833333 15.2083333M6.95833333 8.60833333C7.875 9.25 8.975 9.70833333 10.1666667 9.70833333 12.1833333 9.70833333 13.925 8.51666667 14.75 6.775 15.3916667 8.15 16.4916667 9.15833333 17.9583333 9.525" /><path d="M12.4583333,16.125 C9.43333333,16.125 6.95833333,13.65 6.95833333,10.625 L6.95833333,7.875 C6.95833333,4.85 9.43333333,2.375 12.4583333,2.375 C15.4833333,2.375 17.9583333,4.85 17.9583333,7.875 L17.9583333,10.625 C17.9583333,13.65 15.4833333,16.125 12.4583333,16.125 Z" /></g></symbol><symbol viewBox="0 0 24 24" id="icon_users"><g fill="none" fill-rule="evenodd"><path d="M16.7364167,15.2083333 L22.5416667,15.2083333 L22.5416667,11.5966667 C22.5416667,10.96875 22.2125833,10.3866667 21.6735833,10.064 L19.084,8.51025" /><path d="M13.6023333 4.39075C14.0753333 3.20733333 15.23125 2.375 16.5833333 2.375 18.35525 2.375 19.7916667 3.81141667 19.7916667 5.58333333L19.7916667 6.5C19.7916667 8.27191667 18.35525 9.70833333 16.5833333 9.70833333 16.0819167 9.70833333 15.6309167 9.59833333 15.2083333 9.393M7.74483333 13.2741667L3.57675 15.7711667C2.8315 16.2175833 2.375 17.0233333 2.375 17.89325L2.375 21.625 18.875 21.625 18.875 17.89325C18.875 17.02425 18.4185 16.2185 17.67325 15.7711667L13.5051667 13.2741667" /><path d="M10.625,14.2916667 C8.09408333,14.2916667 6.04166667,12.23925 6.04166667,9.70833333 L6.04166667,7.875 C6.04166667,5.34408333 8.09408333,3.29166667 10.625,3.29166667 C13.1559167,3.29166667 15.2083333,5.34408333 15.2083333,7.875 L15.2083333,9.70833333 C15.2083333,12.23925 13.1559167,14.2916667 10.625,14.2916667 Z" /></g></symbol><symbol viewBox="0 0 24 24" id="icon_video"><path d="M16,14 L16,19 L2,19 L2,5 L16,5 L16,10 L22,8 L22,16 L16,14 Z" fill="none" fill-rule="evenodd" /></symbol><symbol viewBox="0 0 24 24" id="icon_warning"><g fill="none" fill-rule="evenodd"><path d="M1.98232255 21.0413236L11.974619 1.96512139 22.0529899 21.1087383 22.0833333 21.1666667 21.1666667 21.1666667 2.83333333 21.1666667 1.91666667 21.1666667zM12 9.25L12 13.8333333M12 16.5833333L12 17.5" /></g></symbol><symbol viewBox="0 0 24 24" id="icon_youtube"><g fill="none" fill-rule="evenodd"><path d="M23,13.0285492 C23,15.171429 22.7642859,17.3142586 22.7642859,17.3142586 C22.6856992,17.7857053 22.4499851,19.1571042 21.9392865,19.7571226 C21.2714145,20.6142846 20.4857314,20.6999656 20.0535735,20.7428564 L19.9357164,20.7428564 C16.7928462,21 12.0392934,21 12.000023,21 C11.9607527,21 6.06789965,20.9142687 4.33931407,20.7000159 C4.22145701,20.7000159 4.10359995,20.6571753 3.98574289,20.6571753 C3.43572793,20.6143348 2.65004489,20.485763 2.0214432,19.7143323 C1.55001496,19.1572047 1.2750305,17.7857556 1.23571412,17.3143089 C1.23571412,17.2714683 1,15.1285885 1,13.0285993 L1,11.0142913 C1,8.87141146 1.23571412,6.72858183 1.23571412,6.72858183 C1.27498446,6.25713519 1.55001496,4.88573628 2.0214432,4.28571787 C2.72858557,3.42855588 3.47499827,3.34282462 3.94642651,3.29998409 L4.06428357,3.29998409 C7.20715387,3.04284052 11.9607067,3 11.9999769,3 C12.0392473,3 16.7928462,3.04284052 19.9356704,3.29998409 L20.0927978,3.29998409 C20.5249557,3.34282462 21.3106388,3.42855588 21.9785108,4.28571787 C22.449939,4.88573628 22.6856531,6.25713519 22.7642398,6.72858183 C22.8035102,6.81431309 22.9999539,8.95714272 22.9999539,11.0142913 L22.9999539,13.0285492 L23,13.0285492 Z" /><path d="M10 15L10 13.8769787 10 8.13927383 10 8 10.1668663 8.09999781 15.7893926 11.469403 16 11.5956135 15.8701423 11.6692944 14.597527 12.3913735 11.4112099 14.1992827 10.1570658 14.9108812z" /></g></symbol><symbol viewBox="0 0 24 24" id="icon_zoom"><g fill="none" fill-rule="evenodd"><path d="M22.5,22.5 L16.9,16.9" /><circle cx="10.5" cy="10.5" r="9" /><path d="M10.5 6.5L10.5 14.5M14.5 10.5L6.5 10.5" /></g></symbol></defs></svg>